<?xml version="1.0" encoding="utf-8"?>
<!-- Svg Vector Icons : http://www.onlinewebfonts.com/icon -->
<!DOCTYPE svg PUBLIC "-//W3C//DTD SVG 1.1//EN" "http://www.w3.org/Graphics/SVG/1.1/DTD/svg11.dtd">
<svg version="1.1" xmlns="http://www.w3.org/2000/svg" xmlns:xlink="http://www.w3.org/1999/xlink" x="0px" y="0px" viewBox="0 0 256 256" enable-background="new 0 0 256 256" xml:space="preserve">
<metadata> Svg Vector Icons : http://www.onlinewebfonts.com/icon </metadata>
<g><g><g><g><path fill="#000000" d="M236.6,73c-9.4-19.9-24.5-32.6-42.6-35.9c-13.9-2.5-28.1,1-41.2,9.9c-9.5,6.5-17.9,15.5-24.8,26.4c-6.9-11-15.3-20-24.8-26.4C90.1,38.1,75.8,34.7,62,37.1C43.9,40.4,28.8,53.1,19.4,73c-9,19.2-11.7,42.9-7.4,66.7c4.2,23.9,14.9,45.2,29.9,60.1c13.1,13,28.2,19.8,43.5,19.8c3,0,5.9-0.3,8.9-0.8c13.1-2.3,24.8-9.8,33.8-21.4c9,11.6,20.7,19.1,33.8,21.4c2.9,0.5,5.9,0.8,8.9,0.8c15.2,0,30.3-6.8,43.5-19.8c15-14.9,25.7-36.2,29.9-60.1C248.2,115.9,245.6,92.2,236.6,73z M91.9,206.1c-13.8,2.5-28.4-3-41-15.5c-13.2-13-22.5-31.9-26.3-53.2c-3.8-21.3-1.5-42.2,6.4-59c7.5-16,19.3-26.2,33.2-28.7c20.9-3.7,42.9,10.7,56.6,37c-4.2,9.2-7.2,19.1-9,29.4c-4.5,25-1.3,50,8.7,69.4C113.2,196.9,103.1,204.2,91.9,206.1z M231.3,137.5c-3.8,21.3-13.1,40.2-26.3,53.2c-12.6,12.4-27.2,17.9-41,15.5c-12.1-2.1-22.9-10.5-30.5-23.5c-9.9-17.2-13.3-40.6-9.1-64.1c1.8-10.3,5-20,9.3-29c13.6-28,36.4-43.5,58-39.7c13.8,2.5,25.6,12.6,33.2,28.7C232.8,95.3,235.1,116.2,231.3,137.5z"/><path fill="#000000" d="M83.9,138c-15.8,0-28.7,12.8-28.7,28.7c0,8.9,4.1,16.9,10.4,22.1c-0.1-0.7-0.1-1.4,0.1-2c1-3.4,6.1-4.9,11.4-3.3c5.3,1.6,8.7,5.6,7.7,9c-0.4,1.2-1.3,2.2-2.5,2.9c0.5,0,1,0,1.5,0c15.8,0,28.7-12.8,28.7-28.7C112.6,150.8,99.7,138,83.9,138z M101.1,154.2c-1,3.4-6.1,4.9-11.4,3.3c-5.3-1.6-8.7-5.6-7.7-9c1-3.4,6.1-4.9,11.4-3.3C98.6,146.7,102.1,150.7,101.1,154.2z"/><path fill="#000000" d="M163.6,138c-15.8,0-28.7,12.8-28.7,28.7c0,15.8,12.8,28.7,28.7,28.7c0.5,0,1,0,1.5,0c-1.2-0.7-2.1-1.6-2.5-2.9c-1-3.4,2.4-7.4,7.7-9c5.3-1.6,10.4-0.1,11.4,3.3c0.2,0.7,0.2,1.3,0.1,2c6.4-5.3,10.4-13.2,10.4-22.1C192.2,150.8,179.4,138,163.6,138z M157.8,157.5c-5.3,1.6-10.4,0.1-11.4-3.3c-1-3.4,2.4-7.4,7.7-9c5.3-1.6,10.4-0.1,11.4,3.3C166.5,151.9,163.1,155.9,157.8,157.5z"/></g></g><g></g><g></g><g></g><g></g><g></g><g></g><g></g><g></g><g></g><g></g><g></g><g></g><g></g><g></g><g></g></g></g>
</svg>